<svg width="25" height="24" viewBox="0 0 25 24" fill="none" xmlns="http://www.w3.org/2000/svg">
<path fill-rule="evenodd" clip-rule="evenodd" d="M8.88014 2.97505C7.82805 2.00832 6.2109 2.00832 5.15881 2.97505C5.11572 3.01464 5.06973 3.06065 5.01 3.12039L4.1125 4.01788C3.20939 4.921 2.83027 6.22292 3.10733 7.4697C4.6793 14.5436 10.2038 20.0681 17.2777 21.6401C18.5245 21.9171 19.8264 21.538 20.7295 20.6349L21.6269 19.7375C21.6867 19.6777 21.7327 19.6317 21.7723 19.5886C22.7391 18.5365 22.7391 16.9193 21.7723 15.8673C21.7327 15.8241 21.6867 15.7781 21.6269 15.7184L20.1577 14.2491C19.1376 13.229 17.597 12.9372 16.2746 13.5137C15.5175 13.8437 14.6355 13.6767 14.0515 13.0927L11.6547 10.6959C11.0707 10.1119 10.9037 9.22994 11.2337 8.47283C11.8102 7.15037 11.5184 5.60984 10.4983 4.58974L9.02897 3.12041C8.96924 3.06066 8.92323 3.01464 8.88014 2.97505ZM6.17372 4.07957C6.65194 3.64014 7.38701 3.64014 7.86523 4.07957C7.88174 4.09474 7.90338 4.11613 7.97945 4.1922L9.43764 5.6504C10.0216 6.2344 10.1887 7.11635 9.85865 7.87345C9.28219 9.19592 9.57394 10.7364 10.594 11.7565L12.9909 14.1534C14.011 15.1735 15.5515 15.4652 16.8739 14.8887C17.6311 14.5587 18.513 14.7258 19.097 15.3098L20.5552 16.768C20.6313 16.844 20.6527 16.8657 20.6678 16.8822C21.1073 17.3604 21.1073 18.0955 20.6678 18.5737C20.6527 18.5902 20.6313 18.6118 20.5552 18.6879L19.6689 19.5742C19.1284 20.1147 18.3492 20.3416 17.6031 20.1758C11.0978 18.7302 6.01724 13.6496 4.57162 7.1443C4.40581 6.39816 4.63269 5.61902 5.17317 5.07855L6.05951 4.1922C6.13557 4.11614 6.15721 4.09474 6.17372 4.07957Z" fill="#6B7280"/>
</svg>
