<svg width="25" height="24" viewBox="0 0 25 24" fill="none" xmlns="http://www.w3.org/2000/svg">
<path fill-rule="evenodd" clip-rule="evenodd" d="M12.7683 12.25C11.2496 12.25 10.0183 13.4812 10.0183 15C10.0183 16.5188 11.2496 17.75 12.7683 17.75C14.2871 17.75 15.5183 16.5188 15.5183 15C15.5183 13.4812 14.2871 12.25 12.7683 12.25ZM11.5183 15C11.5183 14.3096 12.078 13.75 12.7683 13.75C13.4587 13.75 14.0183 14.3096 14.0183 15C14.0183 15.6904 13.4587 16.25 12.7683 16.25C12.078 16.25 11.5183 15.6904 11.5183 15Z" fill="#6B7280"/>
<path fill-rule="evenodd" clip-rule="evenodd" d="M12.7683 1.25C9.59271 1.25 7.01834 3.82436 7.01834 7V7.52281L6.9915 7.53142C5.24098 8.1002 3.86855 9.47263 3.29977 11.2232C3.01789 12.0907 3.01806 13.1319 3.01833 14.8382V15.1618C3.01806 16.8681 3.01789 17.9093 3.29977 18.7768C3.86855 20.5274 5.24098 21.8998 6.9915 22.4686C7.85901 22.7505 8.90022 22.7503 10.6065 22.75H14.9302C16.6365 22.7503 17.6777 22.7505 18.5452 22.4686C20.2957 21.8998 21.6681 20.5274 22.2369 18.7768C22.5188 17.9093 22.5186 16.8681 22.5184 15.1619V14.8381C22.5186 13.1319 22.5188 12.0907 22.2369 11.2232C21.6681 9.47263 20.2957 8.1002 18.5452 7.53142L18.5183 7.52281V7C18.5183 3.82436 15.944 1.25 12.7683 1.25ZM10.6844 7.25C9.80517 7.24997 9.10345 7.24994 8.51834 7.28306V7C8.51834 4.65279 10.4211 2.75 12.7683 2.75C15.1156 2.75 17.0183 4.65279 17.0183 7V7.28306C16.4332 7.24994 15.7315 7.24997 14.8523 7.25H10.6844ZM7.89294 8.85329C8.49054 8.75262 9.29649 8.75 10.7683 8.75H14.7683C16.2402 8.75 17.0461 8.75262 17.6437 8.85329C17.809 8.88113 17.9515 8.91571 18.0817 8.95801C19.3755 9.37841 20.3899 10.3928 20.8103 11.6867C21.0091 12.2984 21.0183 13.0803 21.0183 15C21.0183 16.9197 21.0091 17.7016 20.8103 18.3133C20.3899 19.6072 19.3755 20.6216 18.0817 21.042C17.47 21.2407 16.688 21.25 14.7683 21.25H10.7683C8.84869 21.25 8.06673 21.2407 7.45502 21.042C6.16116 20.6216 5.14675 19.6072 4.72635 18.3133C4.5276 17.7016 4.51834 16.9197 4.51834 15C4.51834 13.0803 4.5276 12.2984 4.72635 11.6867C5.14675 10.3928 6.16116 9.37841 7.45502 8.95801C7.58519 8.91571 7.72769 8.88113 7.89294 8.85329Z" fill="#6B7280"/>
</svg>
