<svg width="25" height="24" viewBox="0 0 25 24" fill="none" xmlns="http://www.w3.org/2000/svg">
<path fill-rule="evenodd" clip-rule="evenodd" d="M12.7686 6.25C10.6975 6.25 9.01855 7.92893 9.01855 10C9.01855 12.0711 10.6975 13.75 12.7686 13.75C14.8396 13.75 16.5186 12.0711 16.5186 10C16.5186 7.92893 14.8396 6.25 12.7686 6.25ZM10.5186 10C10.5186 8.75736 11.5259 7.75 12.7686 7.75C14.0112 7.75 15.0186 8.75736 15.0186 10C15.0186 11.2426 14.0112 12.25 12.7686 12.25C11.5259 12.25 10.5186 11.2426 10.5186 10Z" fill="#6B7280"/>
<path fill-rule="evenodd" clip-rule="evenodd" d="M12.7686 0.25C7.88522 0.25 4.01855 4.49277 4.01855 9.6087C4.01855 11.2494 4.83366 13.1814 5.85919 14.9945C6.90133 16.837 8.23143 18.6762 9.39759 20.1633L9.43649 20.2129C10.0057 20.9388 10.4906 21.5573 10.9608 21.9844C11.4738 22.4504 12.0395 22.7555 12.7686 22.7555C13.4976 22.7555 14.0633 22.4504 14.5763 21.9844C15.0465 21.5572 15.5314 20.9388 16.1006 20.2129L16.1395 20.1633C17.3057 18.6762 18.6358 16.837 19.6779 14.9945C20.7034 13.1814 21.5186 11.2494 21.5186 9.6087C21.5186 4.49277 17.6519 0.25 12.7686 0.25ZM5.51855 9.6087C5.51855 5.21571 8.81534 1.75 12.7686 1.75C16.7218 1.75 20.0186 5.21571 20.0186 9.6087C20.0186 10.8352 19.3789 12.4764 18.3723 14.256C17.3823 16.0063 16.1028 17.7794 14.9592 19.2377C14.3402 20.027 13.9327 20.5426 13.5677 20.8741C13.2349 21.1764 13.0127 21.2555 12.7686 21.2555C12.5244 21.2555 12.3022 21.1764 11.9694 20.8741C11.6044 20.5426 11.1969 20.027 10.5779 19.2377C9.43434 17.7794 8.15484 16.0063 7.16481 14.256C6.15817 12.4764 5.51855 10.8352 5.51855 9.6087Z" fill="#6B7280"/>
</svg>
