<svg width="25" height="24" viewBox="0 0 25 24" fill="none" xmlns="http://www.w3.org/2000/svg">
<path fill-rule="evenodd" clip-rule="evenodd" d="M12.7683 1.25C10.145 1.25 8.01831 3.37665 8.01831 6C8.01831 8.62335 10.145 10.75 12.7683 10.75C15.3917 10.75 17.5183 8.62335 17.5183 6C17.5183 3.37665 15.3917 1.25 12.7683 1.25ZM9.51831 6C9.51831 4.20507 10.9734 2.75 12.7683 2.75C14.5632 2.75 16.0183 4.20507 16.0183 6C16.0183 7.79493 14.5632 9.25 12.7683 9.25C10.9734 9.25 9.51831 7.79493 9.51831 6Z" fill="#6B7280"/>
<path fill-rule="evenodd" clip-rule="evenodd" d="M9.76831 12.25C7.14496 12.25 5.01831 14.3766 5.01831 17C5.01831 19.6234 7.14496 21.75 9.76831 21.75H15.7683C18.3917 21.75 20.5183 19.6234 20.5183 17C20.5183 14.3766 18.3917 12.25 15.7683 12.25H9.76831ZM6.51831 17C6.51831 15.2051 7.97339 13.75 9.76831 13.75H15.7683C17.5632 13.75 19.0183 15.2051 19.0183 17C19.0183 18.7949 17.5632 20.25 15.7683 20.25H9.76831C7.97339 20.25 6.51831 18.7949 6.51831 17Z" fill="#6B7280"/>
</svg>
