<svg width="25" height="24" viewBox="0 0 25 24" fill="none" xmlns="http://www.w3.org/2000/svg">
<path fill-rule="evenodd" clip-rule="evenodd" d="M12.7686 3.25C10.1452 3.25 8.01855 5.37665 8.01855 8C8.01855 10.6234 10.1452 12.75 12.7686 12.75C15.3919 12.75 17.5186 10.6234 17.5186 8C17.5186 5.37665 15.3919 3.25 12.7686 3.25ZM9.51855 8C9.51855 6.20507 10.9736 4.75 12.7686 4.75C14.5635 4.75 16.0186 6.20507 16.0186 8C16.0186 9.79493 14.5635 11.25 12.7686 11.25C10.9736 11.25 9.51855 9.79493 9.51855 8Z" fill="#6B7280"/>
<path fill-rule="evenodd" clip-rule="evenodd" d="M17.1349 1.32925C16.2195 1.24999 15.0782 1.24999 13.6224 1.25H11.9147C10.4589 1.24999 9.31758 1.24999 8.40218 1.32925C7.46973 1.40998 6.70176 1.57719 6.01287 1.95335C5.04541 2.48162 4.25018 3.27685 3.7219 4.24432C3.34574 4.9332 3.17853 5.70118 3.0978 6.63362C3.01855 7.54902 3.01855 8.69035 3.01855 10.1462V13.3005C3.01855 13.359 3.01855 13.3946 3.01889 13.4257C3.04039 15.4183 4.07467 17.1666 5.62824 18.181C6.51514 18.7601 7.57232 19.1011 8.7065 19.1133C8.73754 19.1136 8.77313 19.1136 8.8315 19.1136L8.84326 19.1136L8.84449 19.1136C8.91149 19.114 8.97553 19.1413 9.02227 19.1893L9.02307 19.1901L9.3831 19.5642C10.0287 20.2349 10.566 20.7932 11.0511 21.1768C11.5625 21.5811 12.1061 21.8659 12.7686 21.8659C13.4311 21.8659 13.9746 21.5811 14.486 21.1768C14.9711 20.7932 15.5084 20.235 16.154 19.5642L16.5148 19.1893C16.5616 19.1413 16.6256 19.114 16.6926 19.1136L16.6939 19.1136L16.7056 19.1136C16.764 19.1136 16.7996 19.1136 16.8306 19.1133C17.9648 19.1011 19.022 18.7601 19.9089 18.181C21.4624 17.1666 22.4967 15.4183 22.5182 13.4257C22.5186 13.3945 22.5186 13.3587 22.5186 13.2998V10.1461C22.5186 8.69034 22.5186 7.54902 22.4393 6.63362C22.3586 5.70118 22.1914 4.9332 21.8152 4.24432C21.2869 3.27685 20.4917 2.48162 19.5242 1.95335C18.8354 1.57719 18.0674 1.40998 17.1349 1.32925ZM6.73175 3.26987C7.16293 3.03442 7.69799 2.89583 8.53156 2.82366C9.37472 2.75066 10.4512 2.75 11.9504 2.75H13.5867C15.0859 2.75 16.1624 2.75066 17.0055 2.82366C17.8391 2.89583 18.3742 3.03442 18.8054 3.26987C19.5204 3.66033 20.1082 4.24811 20.4987 4.96319C20.7341 5.39438 20.8727 5.92944 20.9449 6.76301C21.0179 7.60616 21.0186 8.68267 21.0186 10.1818V13.2949C21.0186 13.3073 21.0186 13.3182 21.0186 13.328C21.0185 13.3706 21.0185 13.3917 21.0183 13.4095C21.0057 14.58 20.5208 15.637 19.7435 16.3989C18.8954 15.1054 17.4325 14.25 15.7686 14.25H9.76855C8.10461 14.25 6.64171 15.1054 5.79361 16.3989C5.0163 15.637 4.53143 14.58 4.5188 13.4095C4.51857 13.3876 4.51856 13.3607 4.51856 13.2949V10.1818C4.51856 8.68267 4.51921 7.60616 4.59221 6.76301C4.66438 5.92944 4.80297 5.39438 5.03842 4.96319C5.42888 4.24811 6.01666 3.66033 6.73175 3.26987ZM15.7686 15.75C16.9159 15.75 17.9256 16.3448 18.5042 17.2443C17.9879 17.4756 17.4167 17.6069 16.8144 17.6134C16.7925 17.6136 16.7656 17.6136 16.6999 17.6136L16.6843 17.6137C16.2153 17.6163 15.767 17.807 15.4399 18.1431L15.4291 18.1543L15.1101 18.4857C14.4181 19.2046 13.9511 19.6875 13.5557 20.0001C13.1774 20.2991 12.957 20.3659 12.7686 20.3659C12.5802 20.3659 12.3597 20.2991 11.9814 20.0001C11.586 19.6875 11.119 19.2046 10.427 18.4857L10.108 18.1543L10.0972 18.1431C9.77012 17.807 9.32179 17.6163 8.85278 17.6137L8.83726 17.6136C8.77149 17.6136 8.7446 17.6136 8.72269 17.6134C8.1204 17.6069 7.54924 17.4756 7.03289 17.2443C7.61146 16.3448 8.62119 15.75 9.76855 15.75H15.7686Z" fill="#6B7280"/>
</svg>
